<?xml version="1.0" encoding="UTF-8" standalone="no"?>
<!DOCTYPE svg PUBLIC "-//W3C//DTD SVG 1.1//EN"
 "http://www.w3.org/Graphics/SVG/1.1/DTD/svg11.dtd">
<!-- Generated by graphviz version 5.0.0 (20220707.1540)
 -->
<!-- Title: dependencies Pages: 1 -->
<svg width="867pt" height="174pt"
 viewBox="0.00 0.00 867.00 173.80" xmlns="http://www.w3.org/2000/svg" xmlns:xlink="http://www.w3.org/1999/xlink">
<g id="graph0" class="graph" transform="scale(1 1) rotate(0) translate(4 169.8)">
<title>dependencies</title>
<polygon fill="white" stroke="transparent" points="-4,4 -4,-169.8 863,-169.8 863,4 -4,4"/>
<text text-anchor="middle" x="429.5" y="-8.2" font-family="sans-serif" font-size="14.00">dependencies</text>
<g id="clust1" class="cluster">
<title>cluster_AuthModule</title>
<polygon fill="none" stroke="black" stroke-dasharray="1,5" points="8,-32.8 8,-157.8 851,-157.8 851,-32.8 8,-32.8"/>
</g>
<g id="clust2" class="cluster">
<title>cluster_AuthModule_declarations</title>
<polygon fill="none" stroke="black" points="269,-40.8 269,-92.8 843,-92.8 843,-40.8 269,-40.8"/>
</g>
<g id="clust7" class="cluster">
<title>cluster_AuthModule_imports</title>
<polygon fill="none" stroke="black" points="16,-40.8 16,-92.8 261,-92.8 261,-40.8 16,-40.8"/>
</g>
<!-- ForgotPasswordComponent -->
<g id="node1" class="node">
<title>ForgotPasswordComponent</title>
<polygon fill="#ffffb3" stroke="black" points="835.34,-84.8 662.66,-84.8 662.66,-48.8 835.34,-48.8 835.34,-84.8"/>
<text text-anchor="middle" x="749" y="-62.6" font-family="Times,serif" font-size="14.00">ForgotPasswordComponent</text>
</g>
<!-- AuthModule -->
<g id="node5" class="node">
<title>AuthModule</title>
<polygon fill="#8dd3c7" stroke="black" points="476.55,-149.8 473.55,-153.8 452.55,-153.8 449.55,-149.8 389.45,-149.8 389.45,-113.8 476.55,-113.8 476.55,-149.8"/>
<text text-anchor="middle" x="433" y="-127.6" font-family="Times,serif" font-size="14.00">AuthModule</text>
</g>
<!-- ForgotPasswordComponent&#45;&gt;AuthModule -->
<g id="edge1" class="edge">
<title>ForgotPasswordComponent&#45;&gt;AuthModule</title>
<path fill="none" stroke="black" d="M749,-85.08C749,-106.12 749,-137.8 749,-137.8 749,-137.8 486.61,-137.8 486.61,-137.8"/>
<polygon fill="black" stroke="black" points="486.61,-134.3 476.61,-137.8 486.61,-141.3 486.61,-134.3"/>
</g>
<!-- LoginPage -->
<g id="node2" class="node">
<title>LoginPage</title>
<polygon fill="#ffffb3" stroke="black" points="645.16,-84.8 568.84,-84.8 568.84,-48.8 645.16,-48.8 645.16,-84.8"/>
<text text-anchor="middle" x="607" y="-62.6" font-family="Times,serif" font-size="14.00">LoginPage</text>
</g>
<!-- LoginPage&#45;&gt;AuthModule -->
<g id="edge2" class="edge">
<title>LoginPage&#45;&gt;AuthModule</title>
<path fill="none" stroke="black" d="M607,-84.82C607,-102.17 607,-125.8 607,-125.8 607,-125.8 486.91,-125.8 486.91,-125.8"/>
<polygon fill="black" stroke="black" points="486.91,-122.3 476.91,-125.8 486.91,-129.3 486.91,-122.3"/>
</g>
<!-- RegisterPage -->
<g id="node3" class="node">
<title>RegisterPage</title>
<polygon fill="#ffffb3" stroke="black" points="550.87,-84.8 461.13,-84.8 461.13,-48.8 550.87,-48.8 550.87,-84.8"/>
<text text-anchor="middle" x="506" y="-62.6" font-family="Times,serif" font-size="14.00">RegisterPage</text>
</g>
<!-- RegisterPage&#45;&gt;AuthModule -->
<g id="edge3" class="edge">
<title>RegisterPage&#45;&gt;AuthModule</title>
<path fill="none" stroke="black" d="M468.92,-84.91C468.92,-84.91 468.92,-103.79 468.92,-103.79"/>
<polygon fill="black" stroke="black" points="465.42,-103.79 468.92,-113.79 472.42,-103.79 465.42,-103.79"/>
</g>
<!-- ResetPasswordComponent -->
<g id="node4" class="node">
<title>ResetPasswordComponent</title>
<polygon fill="#ffffb3" stroke="black" points="443.1,-84.8 276.9,-84.8 276.9,-48.8 443.1,-48.8 443.1,-84.8"/>
<text text-anchor="middle" x="360" y="-62.6" font-family="Times,serif" font-size="14.00">ResetPasswordComponent</text>
</g>
<!-- ResetPasswordComponent&#45;&gt;AuthModule -->
<g id="edge4" class="edge">
<title>ResetPasswordComponent&#45;&gt;AuthModule</title>
<path fill="none" stroke="black" d="M416.14,-84.91C416.14,-84.91 416.14,-103.79 416.14,-103.79"/>
<polygon fill="black" stroke="black" points="412.64,-103.79 416.14,-113.79 419.64,-103.79 412.64,-103.79"/>
</g>
<!-- AuthRoutingModule -->
<g id="node6" class="node">
<title>AuthRoutingModule</title>
<polygon fill="#8dd3c7" stroke="black" points="253.17,-84.8 250.17,-88.8 229.17,-88.8 226.17,-84.8 120.83,-84.8 120.83,-48.8 253.17,-48.8 253.17,-84.8"/>
<text text-anchor="middle" x="187" y="-62.6" font-family="Times,serif" font-size="14.00">AuthRoutingModule</text>
</g>
<!-- AuthRoutingModule&#45;&gt;AuthModule -->
<g id="edge5" class="edge">
<title>AuthRoutingModule&#45;&gt;AuthModule</title>
<path fill="none" stroke="black" d="M187,-84.82C187,-102.17 187,-125.8 187,-125.8 187,-125.8 379.3,-125.8 379.3,-125.8"/>
<polygon fill="black" stroke="black" points="379.3,-129.3 389.3,-125.8 379.3,-122.3 379.3,-129.3"/>
</g>
<!-- LibModule -->
<g id="node7" class="node">
<title>LibModule</title>
<polygon fill="#8dd3c7" stroke="black" points="102.49,-84.8 99.49,-88.8 78.49,-88.8 75.49,-84.8 23.51,-84.8 23.51,-48.8 102.49,-48.8 102.49,-84.8"/>
<text text-anchor="middle" x="63" y="-62.6" font-family="Times,serif" font-size="14.00">LibModule</text>
</g>
<!-- LibModule&#45;&gt;AuthModule -->
<g id="edge6" class="edge">
<title>LibModule&#45;&gt;AuthModule</title>
<path fill="none" stroke="black" d="M63,-85.08C63,-106.12 63,-137.8 63,-137.8 63,-137.8 379.1,-137.8 379.1,-137.8"/>
<polygon fill="black" stroke="black" points="379.1,-141.3 389.1,-137.8 379.1,-134.3 379.1,-141.3"/>
</g>
</g>
</svg>
