<?xml version="1.0" encoding="UTF-8" standalone="no"?>
<!DOCTYPE svg PUBLIC "-//W3C//DTD SVG 1.1//EN"
 "http://www.w3.org/Graphics/SVG/1.1/DTD/svg11.dtd">
<!-- Generated by graphviz version 5.0.0 (20220707.1540)
 -->
<!-- Title: dependencies Pages: 1 -->
<svg width="971pt" height="174pt"
 viewBox="0.00 0.00 971.00 173.80" xmlns="http://www.w3.org/2000/svg" xmlns:xlink="http://www.w3.org/1999/xlink">
<g id="graph0" class="graph" transform="scale(1 1) rotate(0) translate(4 169.8)">
<title>dependencies</title>
<polygon fill="white" stroke="transparent" points="-4,4 -4,-169.8 967,-169.8 967,4 -4,4"/>
<text text-anchor="middle" x="481.5" y="-8.2" font-family="sans-serif" font-size="14.00">dependencies</text>
<g id="clust1" class="cluster">
<title>cluster_StaffModule</title>
<polygon fill="none" stroke="black" stroke-dasharray="1,5" points="8,-32.8 8,-157.8 955,-157.8 955,-32.8 8,-32.8"/>
</g>
<g id="clust2" class="cluster">
<title>cluster_StaffModule_declarations</title>
<polygon fill="none" stroke="black" points="268,-40.8 268,-92.8 947,-92.8 947,-40.8 268,-40.8"/>
</g>
<g id="clust7" class="cluster">
<title>cluster_StaffModule_imports</title>
<polygon fill="none" stroke="black" points="16,-40.8 16,-92.8 260,-92.8 260,-40.8 16,-40.8"/>
</g>
<!-- DashboardComponent -->
<g id="node1" class="node">
<title>DashboardComponent</title>
<polygon fill="#ffffb3" stroke="black" points="938.98,-84.8 797.02,-84.8 797.02,-48.8 938.98,-48.8 938.98,-84.8"/>
<text text-anchor="middle" x="868" y="-62.6" font-family="Times,serif" font-size="14.00">DashboardComponent</text>
</g>
<!-- StaffModule -->
<g id="node5" class="node">
<title>StaffModule</title>
<polygon fill="#8dd3c7" stroke="black" points="475.27,-149.8 472.27,-153.8 451.27,-153.8 448.27,-149.8 388.73,-149.8 388.73,-113.8 475.27,-113.8 475.27,-149.8"/>
<text text-anchor="middle" x="432" y="-127.6" font-family="Times,serif" font-size="14.00">StaffModule</text>
</g>
<!-- DashboardComponent&#45;&gt;StaffModule -->
<g id="edge1" class="edge">
<title>DashboardComponent&#45;&gt;StaffModule</title>
<path fill="none" stroke="black" d="M868,-85.08C868,-106.12 868,-137.8 868,-137.8 868,-137.8 485.4,-137.8 485.4,-137.8"/>
<polygon fill="black" stroke="black" points="485.4,-134.3 475.4,-137.8 485.4,-141.3 485.4,-134.3"/>
</g>
<!-- DocumentDetailComponent -->
<g id="node2" class="node">
<title>DocumentDetailComponent</title>
<polygon fill="#ffffb3" stroke="black" points="778.86,-84.8 605.14,-84.8 605.14,-48.8 778.86,-48.8 778.86,-84.8"/>
<text text-anchor="middle" x="692" y="-62.6" font-family="Times,serif" font-size="14.00">DocumentDetailComponent</text>
</g>
<!-- DocumentDetailComponent&#45;&gt;StaffModule -->
<g id="edge2" class="edge">
<title>DocumentDetailComponent&#45;&gt;StaffModule</title>
<path fill="none" stroke="black" d="M692,-84.82C692,-102.17 692,-125.8 692,-125.8 692,-125.8 485.52,-125.8 485.52,-125.8"/>
<polygon fill="black" stroke="black" points="485.52,-122.3 475.52,-125.8 485.52,-129.3 485.52,-122.3"/>
</g>
<!-- DocumentsComponent -->
<g id="node3" class="node">
<title>DocumentsComponent</title>
<polygon fill="#ffffb3" stroke="black" points="587.6,-84.8 442.4,-84.8 442.4,-48.8 587.6,-48.8 587.6,-84.8"/>
<text text-anchor="middle" x="515" y="-62.6" font-family="Times,serif" font-size="14.00">DocumentsComponent</text>
</g>
<!-- DocumentsComponent&#45;&gt;StaffModule -->
<g id="edge3" class="edge">
<title>DocumentsComponent&#45;&gt;StaffModule</title>
<path fill="none" stroke="black" d="M458.92,-84.91C458.92,-84.91 458.92,-103.79 458.92,-103.79"/>
<polygon fill="black" stroke="black" points="455.42,-103.79 458.92,-113.79 462.42,-103.79 455.42,-103.79"/>
</g>
<!-- StaffLayoutComponent -->
<g id="node4" class="node">
<title>StaffLayoutComponent</title>
<polygon fill="#ffffb3" stroke="black" points="424.2,-84.8 275.8,-84.8 275.8,-48.8 424.2,-48.8 424.2,-84.8"/>
<text text-anchor="middle" x="350" y="-62.6" font-family="Times,serif" font-size="14.00">StaffLayoutComponent</text>
</g>
<!-- StaffLayoutComponent&#45;&gt;StaffModule -->
<g id="edge4" class="edge">
<title>StaffLayoutComponent&#45;&gt;StaffModule</title>
<path fill="none" stroke="black" d="M406.36,-84.91C406.36,-84.91 406.36,-103.79 406.36,-103.79"/>
<polygon fill="black" stroke="black" points="402.86,-103.79 406.36,-113.79 409.86,-103.79 402.86,-103.79"/>
</g>
<!-- LibModule -->
<g id="node6" class="node">
<title>LibModule</title>
<polygon fill="#8dd3c7" stroke="black" points="252.49,-84.8 249.49,-88.8 228.49,-88.8 225.49,-84.8 173.51,-84.8 173.51,-48.8 252.49,-48.8 252.49,-84.8"/>
<text text-anchor="middle" x="213" y="-62.6" font-family="Times,serif" font-size="14.00">LibModule</text>
</g>
<!-- LibModule&#45;&gt;StaffModule -->
<g id="edge5" class="edge">
<title>LibModule&#45;&gt;StaffModule</title>
<path fill="none" stroke="black" d="M213,-84.82C213,-102.17 213,-125.8 213,-125.8 213,-125.8 378.73,-125.8 378.73,-125.8"/>
<polygon fill="black" stroke="black" points="378.73,-129.3 388.73,-125.8 378.73,-122.3 378.73,-129.3"/>
</g>
<!-- StaffRoutingModule -->
<g id="node7" class="node">
<title>StaffRoutingModule</title>
<polygon fill="#8dd3c7" stroke="black" points="155.88,-84.8 152.88,-88.8 131.88,-88.8 128.88,-84.8 24.12,-84.8 24.12,-48.8 155.88,-48.8 155.88,-84.8"/>
<text text-anchor="middle" x="90" y="-62.6" font-family="Times,serif" font-size="14.00">StaffRoutingModule</text>
</g>
<!-- StaffRoutingModule&#45;&gt;StaffModule -->
<g id="edge6" class="edge">
<title>StaffRoutingModule&#45;&gt;StaffModule</title>
<path fill="none" stroke="black" d="M90,-85.08C90,-106.12 90,-137.8 90,-137.8 90,-137.8 378.69,-137.8 378.69,-137.8"/>
<polygon fill="black" stroke="black" points="378.69,-141.3 388.69,-137.8 378.69,-134.3 378.69,-141.3"/>
</g>
</g>
</svg>
