<?xml version="1.0" encoding="UTF-8" standalone="no"?>
<!DOCTYPE svg PUBLIC "-//W3C//DTD SVG 1.1//EN"
 "http://www.w3.org/Graphics/SVG/1.1/DTD/svg11.dtd">
<!-- Generated by graphviz version 5.0.0 (20220707.1540)
 -->
<!-- Title: dependencies Pages: 1 -->
<svg width="648pt" height="174pt"
 viewBox="0.00 0.00 648.00 173.80" xmlns="http://www.w3.org/2000/svg" xmlns:xlink="http://www.w3.org/1999/xlink">
<g id="graph0" class="graph" transform="scale(1 1) rotate(0) translate(4 169.8)">
<title>dependencies</title>
<polygon fill="white" stroke="transparent" points="-4,4 -4,-169.8 644,-169.8 644,4 -4,4"/>
<text text-anchor="middle" x="320" y="-8.2" font-family="sans-serif" font-size="14.00">dependencies</text>
<g id="clust1" class="cluster">
<title>cluster_StudentModule</title>
<polygon fill="none" stroke="black" stroke-dasharray="1,5" points="8,-32.8 8,-157.8 632,-157.8 632,-32.8 8,-32.8"/>
</g>
<g id="clust5" class="cluster">
<title>cluster_StudentModule_imports</title>
<polygon fill="none" stroke="black" points="364,-40.8 364,-92.8 624,-92.8 624,-40.8 364,-40.8"/>
</g>
<g id="clust2" class="cluster">
<title>cluster_StudentModule_declarations</title>
<polygon fill="none" stroke="black" points="16,-40.8 16,-92.8 356,-92.8 356,-40.8 16,-40.8"/>
</g>
<!-- DashboardComponent -->
<g id="node1" class="node">
<title>DashboardComponent</title>
<polygon fill="#ffffb3" stroke="black" points="347.98,-84.8 206.02,-84.8 206.02,-48.8 347.98,-48.8 347.98,-84.8"/>
<text text-anchor="middle" x="277" y="-62.6" font-family="Times,serif" font-size="14.00">DashboardComponent</text>
</g>
<!-- StudentModule -->
<g id="node3" class="node">
<title>StudentModule</title>
<polygon fill="#8dd3c7" stroke="black" points="412.33,-149.8 409.33,-153.8 388.33,-153.8 385.33,-149.8 309.67,-149.8 309.67,-113.8 412.33,-113.8 412.33,-149.8"/>
<text text-anchor="middle" x="361" y="-127.6" font-family="Times,serif" font-size="14.00">StudentModule</text>
</g>
<!-- DashboardComponent&#45;&gt;StudentModule -->
<g id="edge1" class="edge">
<title>DashboardComponent&#45;&gt;StudentModule</title>
<path fill="none" stroke="black" d="M328.91,-84.91C328.91,-84.91 328.91,-103.79 328.91,-103.79"/>
<polygon fill="black" stroke="black" points="325.41,-103.79 328.91,-113.79 332.41,-103.79 325.41,-103.79"/>
</g>
<!-- StudentLayoutComponent -->
<g id="node2" class="node">
<title>StudentLayoutComponent</title>
<polygon fill="#ffffb3" stroke="black" points="187.77,-84.8 24.23,-84.8 24.23,-48.8 187.77,-48.8 187.77,-84.8"/>
<text text-anchor="middle" x="106" y="-62.6" font-family="Times,serif" font-size="14.00">StudentLayoutComponent</text>
</g>
<!-- StudentLayoutComponent&#45;&gt;StudentModule -->
<g id="edge2" class="edge">
<title>StudentLayoutComponent&#45;&gt;StudentModule</title>
<path fill="none" stroke="black" d="M106,-84.91C106,-104.14 106,-131.8 106,-131.8 106,-131.8 299.7,-131.8 299.7,-131.8"/>
<polygon fill="black" stroke="black" points="299.7,-135.3 309.7,-131.8 299.7,-128.3 299.7,-135.3"/>
</g>
<!-- LibModule -->
<g id="node4" class="node">
<title>LibModule</title>
<polygon fill="#8dd3c7" stroke="black" points="616.49,-84.8 613.49,-88.8 592.49,-88.8 589.49,-84.8 537.51,-84.8 537.51,-48.8 616.49,-48.8 616.49,-84.8"/>
<text text-anchor="middle" x="577" y="-62.6" font-family="Times,serif" font-size="14.00">LibModule</text>
</g>
<!-- LibModule&#45;&gt;StudentModule -->
<g id="edge3" class="edge">
<title>LibModule&#45;&gt;StudentModule</title>
<path fill="none" stroke="black" d="M577,-84.91C577,-104.14 577,-131.8 577,-131.8 577,-131.8 422.19,-131.8 422.19,-131.8"/>
<polygon fill="black" stroke="black" points="422.19,-128.3 412.19,-131.8 422.19,-135.3 422.19,-128.3"/>
</g>
<!-- StudentRoutingModule -->
<g id="node5" class="node">
<title>StudentRoutingModule</title>
<polygon fill="#8dd3c7" stroke="black" points="519.95,-84.8 516.95,-88.8 495.95,-88.8 492.95,-84.8 372.05,-84.8 372.05,-48.8 519.95,-48.8 519.95,-84.8"/>
<text text-anchor="middle" x="446" y="-62.6" font-family="Times,serif" font-size="14.00">StudentRoutingModule</text>
</g>
<!-- StudentRoutingModule&#45;&gt;StudentModule -->
<g id="edge4" class="edge">
<title>StudentRoutingModule&#45;&gt;StudentModule</title>
<path fill="none" stroke="black" d="M392.22,-84.91C392.22,-84.91 392.22,-103.79 392.22,-103.79"/>
<polygon fill="black" stroke="black" points="388.72,-103.79 392.22,-113.79 395.72,-103.79 388.72,-103.79"/>
</g>
</g>
</svg>
