<?xml version="1.0" encoding="UTF-8" standalone="no"?>
<!DOCTYPE svg PUBLIC "-//W3C//DTD SVG 1.1//EN"
 "http://www.w3.org/Graphics/SVG/1.1/DTD/svg11.dtd">
<!-- Generated by graphviz version 5.0.0 (20220707.1540)
 -->
<!-- Title: dependencies Pages: 1 -->
<svg width="654pt" height="247pt"
 viewBox="0.00 0.00 654.00 246.80" xmlns="http://www.w3.org/2000/svg" xmlns:xlink="http://www.w3.org/1999/xlink">
<g id="graph0" class="graph" transform="scale(1 1) rotate(0) translate(4 242.8)">
<title>dependencies</title>
<polygon fill="white" stroke="transparent" points="-4,4 -4,-242.8 650,-242.8 650,4 -4,4"/>
<text text-anchor="middle" x="323" y="-8.2" font-family="sans-serif" font-size="14.00">dependencies</text>
<g id="clust1" class="cluster">
<title>cluster_LibModule</title>
<polygon fill="none" stroke="black" stroke-dasharray="1,5" points="8,-32.8 8,-230.8 638,-230.8 638,-32.8 8,-32.8"/>
</g>
<g id="clust8" class="cluster">
<title>cluster_LibModule_exports</title>
<polygon fill="none" stroke="black" points="16,-170.8 16,-222.8 630,-222.8 630,-170.8 16,-170.8"/>
</g>
<g id="clust2" class="cluster">
<title>cluster_LibModule_declarations</title>
<polygon fill="none" stroke="black" points="24,-40.8 24,-92.8 625,-92.8 625,-40.8 24,-40.8"/>
</g>
<!-- LayoutHorizontalComponent -->
<g id="node1" class="node">
<title>LayoutHorizontalComponent</title>
<polygon fill="#ffffb3" stroke="black" points="617.36,-84.8 436.64,-84.8 436.64,-48.8 617.36,-48.8 617.36,-84.8"/>
<text text-anchor="middle" x="527" y="-62.6" font-family="Times,serif" font-size="14.00">LayoutHorizontalComponent</text>
</g>
<!-- LibModule -->
<g id="node5" class="node">
<title>LibModule</title>
<polygon fill="#8dd3c7" stroke="black" points="273.49,-149.8 270.49,-153.8 249.49,-153.8 246.49,-149.8 194.51,-149.8 194.51,-113.8 273.49,-113.8 273.49,-149.8"/>
<text text-anchor="middle" x="234" y="-127.6" font-family="Times,serif" font-size="14.00">LibModule</text>
</g>
<!-- LayoutHorizontalComponent&#45;&gt;LibModule -->
<g id="edge1" class="edge">
<title>LayoutHorizontalComponent&#45;&gt;LibModule</title>
<path fill="none" stroke="black" d="M557.56,-85.07C557.56,-103.36 557.56,-128.8 557.56,-128.8 557.56,-128.8 283.67,-128.8 283.67,-128.8"/>
<polygon fill="black" stroke="black" points="283.67,-125.3 273.67,-128.8 283.67,-132.3 283.67,-125.3"/>
</g>
<!-- LogoComponent -->
<g id="node2" class="node">
<title>LogoComponent</title>
<polygon fill="#ffffb3" stroke="black" points="418.38,-84.8 307.62,-84.8 307.62,-48.8 418.38,-48.8 418.38,-84.8"/>
<text text-anchor="middle" x="363" y="-62.6" font-family="Times,serif" font-size="14.00">LogoComponent</text>
</g>
<!-- LogoComponent&#45;&gt;LibModule -->
<g id="edge2" class="edge">
<title>LogoComponent&#45;&gt;LibModule</title>
<path fill="none" stroke="black" d="M381.48,-84.81C381.48,-100.85 381.48,-121.8 381.48,-121.8 381.48,-121.8 283.52,-121.8 283.52,-121.8"/>
<polygon fill="black" stroke="black" points="283.52,-118.3 273.52,-121.8 283.52,-125.3 283.52,-118.3"/>
</g>
<!-- MomentDatePipe -->
<g id="node3" class="node">
<title>MomentDatePipe</title>
<polygon fill="#ffffb3" stroke="black" points="289.26,-84.8 174.74,-84.8 174.74,-48.8 289.26,-48.8 289.26,-84.8"/>
<text text-anchor="middle" x="232" y="-62.6" font-family="Times,serif" font-size="14.00">MomentDatePipe</text>
</g>
<!-- MomentDatePipe&#45;&gt;LibModule -->
<g id="edge3" class="edge">
<title>MomentDatePipe&#45;&gt;LibModule</title>
<path fill="none" stroke="black" d="M234,-84.91C234,-84.91 234,-103.79 234,-103.79"/>
<polygon fill="black" stroke="black" points="230.5,-103.79 234,-113.79 237.5,-103.79 230.5,-103.79"/>
</g>
<!-- SpinnerComponent -->
<g id="node4" class="node">
<title>SpinnerComponent</title>
<polygon fill="#ffffb3" stroke="black" points="156.38,-84.8 31.62,-84.8 31.62,-48.8 156.38,-48.8 156.38,-84.8"/>
<text text-anchor="middle" x="94" y="-62.6" font-family="Times,serif" font-size="14.00">SpinnerComponent</text>
</g>
<!-- SpinnerComponent&#45;&gt;LibModule -->
<g id="edge4" class="edge">
<title>SpinnerComponent&#45;&gt;LibModule</title>
<path fill="none" stroke="black" d="M111.98,-84.82C111.98,-102.17 111.98,-125.8 111.98,-125.8 111.98,-125.8 184.38,-125.8 184.38,-125.8"/>
<polygon fill="black" stroke="black" points="184.38,-129.3 194.38,-125.8 184.38,-122.3 184.38,-129.3"/>
</g>
<!-- LayoutHorizontalComponent  -->
<g id="node6" class="node">
<title>LayoutHorizontalComponent </title>
<polygon fill="#fb8072" stroke="black" points="622.36,-214.8 437.64,-214.8 437.64,-178.8 622.36,-178.8 622.36,-214.8"/>
<text text-anchor="middle" x="530" y="-192.6" font-family="Times,serif" font-size="14.00">LayoutHorizontalComponent </text>
</g>
<!-- LibModule&#45;&gt;LayoutHorizontalComponent  -->
<g id="edge5" class="edge">
<title>LibModule&#45;&gt;LayoutHorizontalComponent </title>
<path fill="none" stroke="black" stroke-dasharray="5,2" d="M273.76,-135.8C347.43,-135.8 497.69,-135.8 497.69,-135.8 497.69,-135.8 497.69,-168.5 497.69,-168.5"/>
<polygon fill="black" stroke="black" points="494.19,-168.5 497.69,-178.5 501.19,-168.5 494.19,-168.5"/>
</g>
<!-- LogoComponent  -->
<g id="node7" class="node">
<title>LogoComponent </title>
<polygon fill="#fb8072" stroke="black" points="420.38,-214.8 305.62,-214.8 305.62,-178.8 420.38,-178.8 420.38,-214.8"/>
<text text-anchor="middle" x="363" y="-192.6" font-family="Times,serif" font-size="14.00">LogoComponent </text>
</g>
<!-- LibModule&#45;&gt;LogoComponent  -->
<g id="edge6" class="edge">
<title>LibModule&#45;&gt;LogoComponent </title>
<path fill="none" stroke="black" stroke-dasharray="5,2" d="M273.59,-142.8C305.3,-142.8 344.52,-142.8 344.52,-142.8 344.52,-142.8 344.52,-168.52 344.52,-168.52"/>
<polygon fill="black" stroke="black" points="341.02,-168.52 344.52,-178.52 348.02,-168.52 341.02,-168.52"/>
</g>
<!-- MomentDatePipe  -->
<g id="node8" class="node">
<title>MomentDatePipe </title>
<polygon fill="#fb8072" stroke="black" points="288.26,-214.8 169.74,-214.8 169.74,-178.8 288.26,-178.8 288.26,-214.8"/>
<text text-anchor="middle" x="229" y="-192.6" font-family="Times,serif" font-size="14.00">MomentDatePipe </text>
</g>
<!-- LibModule&#45;&gt;MomentDatePipe  -->
<g id="edge7" class="edge">
<title>LibModule&#45;&gt;MomentDatePipe </title>
<path fill="none" stroke="black" stroke-dasharray="5,2" d="M234,-149.91C234,-149.91 234,-168.79 234,-168.79"/>
<polygon fill="black" stroke="black" points="230.5,-168.79 234,-178.79 237.5,-168.79 230.5,-168.79"/>
</g>
<!-- SpinnerComponent  -->
<g id="node9" class="node">
<title>SpinnerComponent </title>
<polygon fill="#fb8072" stroke="black" points="152.38,-214.8 23.62,-214.8 23.62,-178.8 152.38,-178.8 152.38,-214.8"/>
<text text-anchor="middle" x="88" y="-192.6" font-family="Times,serif" font-size="14.00">SpinnerComponent </text>
</g>
<!-- LibModule&#45;&gt;SpinnerComponent  -->
<g id="edge8" class="edge">
<title>LibModule&#45;&gt;SpinnerComponent </title>
<path fill="none" stroke="black" stroke-dasharray="5,2" d="M194.31,-137.8C146.29,-137.8 71.77,-137.8 71.77,-137.8 71.77,-137.8 71.77,-168.78 71.77,-168.78"/>
<polygon fill="black" stroke="black" points="68.27,-168.78 71.77,-178.78 75.27,-168.78 68.27,-168.78"/>
</g>
</g>
</svg>
