<?xml version="1.0" encoding="UTF-8" standalone="no"?>
<!DOCTYPE svg PUBLIC "-//W3C//DTD SVG 1.1//EN"
 "http://www.w3.org/Graphics/SVG/1.1/DTD/svg11.dtd">
<!-- Generated by graphviz version 5.0.0 (20220707.1540)
 -->
<!-- Title: dependencies Pages: 1 -->
<svg width="1394pt" height="247pt"
 viewBox="0.00 0.00 1394.00 246.80" xmlns="http://www.w3.org/2000/svg" xmlns:xlink="http://www.w3.org/1999/xlink">
<g id="graph0" class="graph" transform="scale(1 1) rotate(0) translate(4 242.8)">
<title>dependencies</title>
<polygon fill="white" stroke="transparent" points="-4,4 -4,-242.8 1390,-242.8 1390,4 -4,4"/>
<text text-anchor="middle" x="693" y="-8.2" font-family="sans-serif" font-size="14.00">dependencies</text>
<g id="clust1" class="cluster">
<title>cluster_AppModule</title>
<polygon fill="none" stroke="black" stroke-dasharray="1,5" points="8,-32.8 8,-230.8 1378,-230.8 1378,-32.8 8,-32.8"/>
</g>
<g id="clust7" class="cluster">
<title>cluster_AppModule_bootstrap</title>
<polygon fill="none" stroke="black" points="575,-170.8 575,-222.8 699,-222.8 699,-170.8 575,-170.8"/>
</g>
<g id="clust8" class="cluster">
<title>cluster_AppModule_providers</title>
<polygon fill="none" stroke="black" points="1004,-40.8 1004,-92.8 1370,-92.8 1370,-40.8 1004,-40.8"/>
</g>
<g id="clust5" class="cluster">
<title>cluster_AppModule_imports</title>
<polygon fill="none" stroke="black" points="312,-40.8 312,-92.8 996,-92.8 996,-40.8 312,-40.8"/>
</g>
<g id="clust2" class="cluster">
<title>cluster_AppModule_declarations</title>
<polygon fill="none" stroke="black" points="16,-40.8 16,-92.8 304,-92.8 304,-40.8 16,-40.8"/>
</g>
<!-- AppComponent -->
<g id="node1" class="node">
<title>AppComponent</title>
<polygon fill="#ffffb3" stroke="black" points="295.94,-84.8 190.06,-84.8 190.06,-48.8 295.94,-48.8 295.94,-84.8"/>
<text text-anchor="middle" x="243" y="-62.6" font-family="Times,serif" font-size="14.00">AppComponent</text>
</g>
<!-- AppModule -->
<g id="node3" class="node">
<title>AppModule</title>
<polygon fill="#8dd3c7" stroke="black" points="678.66,-149.8 675.66,-153.8 654.66,-153.8 651.66,-149.8 595.34,-149.8 595.34,-113.8 678.66,-113.8 678.66,-149.8"/>
<text text-anchor="middle" x="637" y="-127.6" font-family="Times,serif" font-size="14.00">AppModule</text>
</g>
<!-- AppComponent&#45;&gt;AppModule -->
<g id="edge1" class="edge">
<title>AppComponent&#45;&gt;AppModule</title>
<path fill="none" stroke="black" d="M243,-84.93C243,-105.37 243,-135.8 243,-135.8 243,-135.8 585.21,-135.8 585.21,-135.8"/>
<polygon fill="black" stroke="black" points="585.21,-139.3 595.21,-135.8 585.21,-132.3 585.21,-139.3"/>
</g>
<!-- NotificationComponent -->
<g id="node2" class="node">
<title>NotificationComponent</title>
<polygon fill="#ffffb3" stroke="black" points="172.48,-84.8 23.52,-84.8 23.52,-48.8 172.48,-48.8 172.48,-84.8"/>
<text text-anchor="middle" x="98" y="-62.6" font-family="Times,serif" font-size="14.00">NotificationComponent</text>
</g>
<!-- NotificationComponent&#45;&gt;AppModule -->
<g id="edge2" class="edge">
<title>NotificationComponent&#45;&gt;AppModule</title>
<path fill="none" stroke="black" d="M98,-84.81C98,-107.29 98,-142.8 98,-142.8 98,-142.8 585.15,-142.8 585.15,-142.8"/>
<polygon fill="black" stroke="black" points="585.15,-146.3 595.15,-142.8 585.15,-139.3 585.15,-146.3"/>
</g>
<!-- AppComponent  -->
<g id="node10" class="node">
<title>AppComponent </title>
<polygon fill="#80b1d3" stroke="black" points="691.44,-214.8 582.56,-214.8 582.56,-178.8 691.44,-178.8 691.44,-214.8"/>
<text text-anchor="middle" x="637" y="-192.6" font-family="Times,serif" font-size="14.00">AppComponent </text>
</g>
<!-- AppModule&#45;&gt;AppComponent  -->
<g id="edge9" class="edge">
<title>AppModule&#45;&gt;AppComponent </title>
<path fill="none" stroke="black" stroke-dasharray="1,5" d="M637,-149.91C637,-149.91 637,-168.79 637,-168.79"/>
<polygon fill="black" stroke="black" points="633.5,-168.79 637,-178.79 640.5,-168.79 633.5,-168.79"/>
</g>
<!-- AppRoutingModule -->
<g id="node4" class="node">
<title>AppRoutingModule</title>
<polygon fill="#8dd3c7" stroke="black" points="988.28,-84.8 985.28,-88.8 964.28,-88.8 961.28,-84.8 859.72,-84.8 859.72,-48.8 988.28,-48.8 988.28,-84.8"/>
<text text-anchor="middle" x="924" y="-62.6" font-family="Times,serif" font-size="14.00">AppRoutingModule</text>
</g>
<!-- AppRoutingModule&#45;&gt;AppModule -->
<g id="edge3" class="edge">
<title>AppRoutingModule&#45;&gt;AppModule</title>
<path fill="none" stroke="black" d="M924,-85.07C924,-103.36 924,-128.8 924,-128.8 924,-128.8 688.73,-128.8 688.73,-128.8"/>
<polygon fill="black" stroke="black" points="688.73,-125.3 678.73,-128.8 688.73,-132.3 688.73,-125.3"/>
</g>
<!-- AuthModule -->
<g id="node5" class="node">
<title>AuthModule</title>
<polygon fill="#8dd3c7" stroke="black" points="841.55,-84.8 838.55,-88.8 817.55,-88.8 814.55,-84.8 754.45,-84.8 754.45,-48.8 841.55,-48.8 841.55,-84.8"/>
<text text-anchor="middle" x="798" y="-62.6" font-family="Times,serif" font-size="14.00">AuthModule</text>
</g>
<!-- AuthModule&#45;&gt;AppModule -->
<g id="edge4" class="edge">
<title>AuthModule&#45;&gt;AppModule</title>
<path fill="none" stroke="black" d="M798,-84.81C798,-100.85 798,-121.8 798,-121.8 798,-121.8 688.88,-121.8 688.88,-121.8"/>
<polygon fill="black" stroke="black" points="688.88,-118.3 678.88,-121.8 688.88,-125.3 688.88,-118.3"/>
</g>
<!-- HomeModule -->
<g id="node6" class="node">
<title>HomeModule</title>
<polygon fill="#8dd3c7" stroke="black" points="735.77,-84.8 732.77,-88.8 711.77,-88.8 708.77,-84.8 642.23,-84.8 642.23,-48.8 735.77,-48.8 735.77,-84.8"/>
<text text-anchor="middle" x="689" y="-62.6" font-family="Times,serif" font-size="14.00">HomeModule</text>
</g>
<!-- HomeModule&#45;&gt;AppModule -->
<g id="edge5" class="edge">
<title>HomeModule&#45;&gt;AppModule</title>
<path fill="none" stroke="black" d="M660.47,-84.91C660.47,-84.91 660.47,-103.79 660.47,-103.79"/>
<polygon fill="black" stroke="black" points="656.97,-103.79 660.47,-113.79 663.97,-103.79 656.97,-103.79"/>
</g>
<!-- LibModule -->
<g id="node7" class="node">
<title>LibModule</title>
<polygon fill="#8dd3c7" stroke="black" points="624.49,-84.8 621.49,-88.8 600.49,-88.8 597.49,-84.8 545.51,-84.8 545.51,-48.8 624.49,-48.8 624.49,-84.8"/>
<text text-anchor="middle" x="585" y="-62.6" font-family="Times,serif" font-size="14.00">LibModule</text>
</g>
<!-- LibModule&#45;&gt;AppModule -->
<g id="edge6" class="edge">
<title>LibModule&#45;&gt;AppModule</title>
<path fill="none" stroke="black" d="M609.83,-84.91C609.83,-84.91 609.83,-103.79 609.83,-103.79"/>
<polygon fill="black" stroke="black" points="606.33,-103.79 609.83,-113.79 613.33,-103.79 606.33,-103.79"/>
</g>
<!-- StaffModule -->
<g id="node8" class="node">
<title>StaffModule</title>
<polygon fill="#8dd3c7" stroke="black" points="527.27,-84.8 524.27,-88.8 503.27,-88.8 500.27,-84.8 440.73,-84.8 440.73,-48.8 527.27,-48.8 527.27,-84.8"/>
<text text-anchor="middle" x="484" y="-62.6" font-family="Times,serif" font-size="14.00">StaffModule</text>
</g>
<!-- StaffModule&#45;&gt;AppModule -->
<g id="edge7" class="edge">
<title>StaffModule&#45;&gt;AppModule</title>
<path fill="none" stroke="black" d="M484,-84.81C484,-100.85 484,-121.8 484,-121.8 484,-121.8 585.19,-121.8 585.19,-121.8"/>
<polygon fill="black" stroke="black" points="585.19,-125.3 595.19,-121.8 585.19,-118.3 585.19,-125.3"/>
</g>
<!-- StudentModule -->
<g id="node9" class="node">
<title>StudentModule</title>
<polygon fill="#8dd3c7" stroke="black" points="422.33,-84.8 419.33,-88.8 398.33,-88.8 395.33,-84.8 319.67,-84.8 319.67,-48.8 422.33,-48.8 422.33,-84.8"/>
<text text-anchor="middle" x="371" y="-62.6" font-family="Times,serif" font-size="14.00">StudentModule</text>
</g>
<!-- StudentModule&#45;&gt;AppModule -->
<g id="edge8" class="edge">
<title>StudentModule&#45;&gt;AppModule</title>
<path fill="none" stroke="black" d="M371,-85.07C371,-103.36 371,-128.8 371,-128.8 371,-128.8 585.14,-128.8 585.14,-128.8"/>
<polygon fill="black" stroke="black" points="585.14,-132.3 595.14,-128.8 585.14,-125.3 585.14,-132.3"/>
</g>
<!-- JwtInterceptor -->
<g id="node11" class="node">
<title>JwtInterceptor</title>
<ellipse fill="#fdb462" stroke="black" cx="1295" cy="-66.8" rx="66.62" ry="18"/>
<text text-anchor="middle" x="1295" y="-62.6" font-family="Times,serif" font-size="14.00">JwtInterceptor</text>
</g>
<!-- JwtInterceptor&#45;&gt;AppModule -->
<g id="edge10" class="edge">
<title>JwtInterceptor&#45;&gt;AppModule</title>
<path fill="none" stroke="black" d="M1295,-84.81C1295,-107.29 1295,-142.8 1295,-142.8 1295,-142.8 688.91,-142.8 688.91,-142.8"/>
<polygon fill="black" stroke="black" points="688.91,-139.3 678.91,-142.8 688.91,-146.3 688.91,-139.3"/>
</g>
<!-- ServerErrorInterceptor -->
<g id="node12" class="node">
<title>ServerErrorInterceptor</title>
<ellipse fill="#fdb462" stroke="black" cx="1111" cy="-66.8" rx="98.94" ry="18"/>
<text text-anchor="middle" x="1111" y="-62.6" font-family="Times,serif" font-size="14.00">ServerErrorInterceptor</text>
</g>
<!-- ServerErrorInterceptor&#45;&gt;AppModule -->
<g id="edge11" class="edge">
<title>ServerErrorInterceptor&#45;&gt;AppModule</title>
<path fill="none" stroke="black" d="M1111,-84.93C1111,-105.37 1111,-135.8 1111,-135.8 1111,-135.8 689.06,-135.8 689.06,-135.8"/>
<polygon fill="black" stroke="black" points="689.06,-132.3 679.06,-135.8 689.06,-139.3 689.06,-132.3"/>
</g>
</g>
</svg>
